<mxfile host="Electron" modified="2023-12-04T09:16:34.575Z" agent="Mozilla/5.0 (Windows NT 10.0; Win64; x64) AppleWebKit/537.36 (KHTML, like Gecko) draw.io/22.1.2 Chrome/114.0.5735.289 Electron/25.9.4 Safari/537.36" etag="xKu4lQazT6puB5Vu0TDe" version="22.1.2" type="device">
  <diagram id="C5RBs43oDa-KdzZeNtuy" name="Page-1">
    <mxGraphModel dx="1335" dy="943" grid="1" gridSize="10" guides="1" tooltips="1" connect="1" arrows="1" fold="1" page="1" pageScale="1" pageWidth="1169" pageHeight="827" math="0" shadow="0">
      <root>
        <mxCell id="WIyWlLk6GJQsqaUBKTNV-0" />
        <mxCell id="WIyWlLk6GJQsqaUBKTNV-1" parent="WIyWlLk6GJQsqaUBKTNV-0" />
        <mxCell id="VReMogn3eC7N8-EoVnd--19" style="rounded=0;orthogonalLoop=1;jettySize=auto;html=1;entryX=0;entryY=0.5;entryDx=0;entryDy=0;" parent="WIyWlLk6GJQsqaUBKTNV-1" target="VReMogn3eC7N8-EoVnd--28" edge="1">
          <mxGeometry relative="1" as="geometry">
            <mxPoint x="47" y="416" as="sourcePoint" />
          </mxGeometry>
        </mxCell>
        <mxCell id="VReMogn3eC7N8-EoVnd--21" value="查询指令" style="edgeLabel;html=1;align=center;verticalAlign=middle;resizable=0;points=[];" parent="VReMogn3eC7N8-EoVnd--19" vertex="1" connectable="0">
          <mxGeometry x="-0.5458" relative="1" as="geometry">
            <mxPoint x="37" as="offset" />
          </mxGeometry>
        </mxCell>
        <mxCell id="-o-BEZxv58qxEbgm3Y7_-5" style="rounded=0;orthogonalLoop=1;jettySize=auto;html=1;exitX=0.5;exitY=0;exitDx=0;exitDy=0;entryX=0;entryY=0.5;entryDx=0;entryDy=0;" parent="WIyWlLk6GJQsqaUBKTNV-1" source="VReMogn3eC7N8-EoVnd--28" target="-o-BEZxv58qxEbgm3Y7_-4" edge="1">
          <mxGeometry relative="1" as="geometry" />
        </mxCell>
        <mxCell id="-o-BEZxv58qxEbgm3Y7_-10" value="图书查询指令" style="edgeLabel;html=1;align=center;verticalAlign=middle;resizable=0;points=[];" parent="-o-BEZxv58qxEbgm3Y7_-5" vertex="1" connectable="0">
          <mxGeometry x="-0.0418" y="2" relative="1" as="geometry">
            <mxPoint x="5" y="4" as="offset" />
          </mxGeometry>
        </mxCell>
        <mxCell id="-o-BEZxv58qxEbgm3Y7_-6" style="rounded=0;orthogonalLoop=1;jettySize=auto;html=1;exitX=1;exitY=0;exitDx=0;exitDy=0;entryX=0;entryY=0.5;entryDx=0;entryDy=0;" parent="WIyWlLk6GJQsqaUBKTNV-1" source="VReMogn3eC7N8-EoVnd--28" target="-o-BEZxv58qxEbgm3Y7_-2" edge="1">
          <mxGeometry relative="1" as="geometry" />
        </mxCell>
        <mxCell id="-o-BEZxv58qxEbgm3Y7_-11" value="盈利信息查询指令" style="edgeLabel;html=1;align=center;verticalAlign=middle;resizable=0;points=[];" parent="-o-BEZxv58qxEbgm3Y7_-6" vertex="1" connectable="0">
          <mxGeometry x="-0.0265" y="-1" relative="1" as="geometry">
            <mxPoint x="-7" y="3" as="offset" />
          </mxGeometry>
        </mxCell>
        <mxCell id="-o-BEZxv58qxEbgm3Y7_-7" style="rounded=0;orthogonalLoop=1;jettySize=auto;html=1;exitX=1;exitY=0.5;exitDx=0;exitDy=0;entryX=0;entryY=0.5;entryDx=0;entryDy=0;" parent="WIyWlLk6GJQsqaUBKTNV-1" source="VReMogn3eC7N8-EoVnd--28" target="-o-BEZxv58qxEbgm3Y7_-3" edge="1">
          <mxGeometry relative="1" as="geometry" />
        </mxCell>
        <mxCell id="-o-BEZxv58qxEbgm3Y7_-13" value="销售历史查询指令" style="edgeLabel;html=1;align=center;verticalAlign=middle;resizable=0;points=[];" parent="-o-BEZxv58qxEbgm3Y7_-7" vertex="1" connectable="0">
          <mxGeometry x="-0.0265" y="2" relative="1" as="geometry">
            <mxPoint y="1" as="offset" />
          </mxGeometry>
        </mxCell>
        <mxCell id="-o-BEZxv58qxEbgm3Y7_-8" style="rounded=0;orthogonalLoop=1;jettySize=auto;html=1;exitX=1;exitY=1;exitDx=0;exitDy=0;entryX=0;entryY=0.5;entryDx=0;entryDy=0;" parent="WIyWlLk6GJQsqaUBKTNV-1" source="VReMogn3eC7N8-EoVnd--28" target="-o-BEZxv58qxEbgm3Y7_-1" edge="1">
          <mxGeometry relative="1" as="geometry" />
        </mxCell>
        <mxCell id="-o-BEZxv58qxEbgm3Y7_-14" value="采购历史查询指令" style="edgeLabel;html=1;align=center;verticalAlign=middle;resizable=0;points=[];" parent="-o-BEZxv58qxEbgm3Y7_-8" vertex="1" connectable="0">
          <mxGeometry x="-0.1029" relative="1" as="geometry">
            <mxPoint as="offset" />
          </mxGeometry>
        </mxCell>
        <mxCell id="-o-BEZxv58qxEbgm3Y7_-9" style="rounded=0;orthogonalLoop=1;jettySize=auto;html=1;exitX=0.5;exitY=1;exitDx=0;exitDy=0;entryX=0;entryY=0.5;entryDx=0;entryDy=0;" parent="WIyWlLk6GJQsqaUBKTNV-1" source="VReMogn3eC7N8-EoVnd--28" target="-o-BEZxv58qxEbgm3Y7_-0" edge="1">
          <mxGeometry relative="1" as="geometry" />
        </mxCell>
        <mxCell id="-o-BEZxv58qxEbgm3Y7_-15" value="日志文件查询指令" style="edgeLabel;html=1;align=center;verticalAlign=middle;resizable=0;points=[];" parent="-o-BEZxv58qxEbgm3Y7_-9" vertex="1" connectable="0">
          <mxGeometry x="-0.0875" y="1" relative="1" as="geometry">
            <mxPoint x="9" y="8" as="offset" />
          </mxGeometry>
        </mxCell>
        <mxCell id="DdIK49mO1vccAAld3szM-2" style="rounded=0;orthogonalLoop=1;jettySize=auto;html=1;exitX=0;exitY=1;exitDx=0;exitDy=0;entryX=0;entryY=0.5;entryDx=0;entryDy=0;" edge="1" parent="WIyWlLk6GJQsqaUBKTNV-1" source="VReMogn3eC7N8-EoVnd--28" target="DdIK49mO1vccAAld3szM-0">
          <mxGeometry relative="1" as="geometry" />
        </mxCell>
        <mxCell id="DdIK49mO1vccAAld3szM-3" value="员工工作情况查询指令" style="edgeLabel;html=1;align=center;verticalAlign=middle;resizable=0;points=[];" vertex="1" connectable="0" parent="DdIK49mO1vccAAld3szM-2">
          <mxGeometry x="-0.0259" relative="1" as="geometry">
            <mxPoint as="offset" />
          </mxGeometry>
        </mxCell>
        <mxCell id="VReMogn3eC7N8-EoVnd--28" value="&lt;font style=&quot;font-size: 16px;&quot;&gt;识别查询指令&lt;/font&gt;" style="ellipse;whiteSpace=wrap;html=1;" parent="WIyWlLk6GJQsqaUBKTNV-1" vertex="1">
          <mxGeometry x="179" y="376" width="160" height="80" as="geometry" />
        </mxCell>
        <mxCell id="DdIK49mO1vccAAld3szM-18" style="edgeStyle=orthogonalEdgeStyle;rounded=0;orthogonalLoop=1;jettySize=auto;html=1;exitX=1;exitY=0.5;exitDx=0;exitDy=0;entryX=0.25;entryY=1;entryDx=0;entryDy=0;" edge="1" parent="WIyWlLk6GJQsqaUBKTNV-1" source="-o-BEZxv58qxEbgm3Y7_-0" target="DdIK49mO1vccAAld3szM-16">
          <mxGeometry relative="1" as="geometry" />
        </mxCell>
        <mxCell id="DdIK49mO1vccAAld3szM-28" value="查询结果" style="edgeLabel;html=1;align=center;verticalAlign=middle;resizable=0;points=[];" vertex="1" connectable="0" parent="DdIK49mO1vccAAld3szM-18">
          <mxGeometry x="-0.6509" y="1" relative="1" as="geometry">
            <mxPoint x="-4" y="1" as="offset" />
          </mxGeometry>
        </mxCell>
        <mxCell id="-o-BEZxv58qxEbgm3Y7_-0" value="&lt;font style=&quot;font-size: 16px;&quot;&gt;查询日志&lt;/font&gt;" style="ellipse;whiteSpace=wrap;html=1;" parent="WIyWlLk6GJQsqaUBKTNV-1" vertex="1">
          <mxGeometry x="457" y="569" width="160" height="80" as="geometry" />
        </mxCell>
        <mxCell id="DdIK49mO1vccAAld3szM-19" style="edgeStyle=orthogonalEdgeStyle;rounded=0;orthogonalLoop=1;jettySize=auto;html=1;exitX=0.5;exitY=1;exitDx=0;exitDy=0;entryX=0;entryY=0.75;entryDx=0;entryDy=0;" edge="1" parent="WIyWlLk6GJQsqaUBKTNV-1" source="-o-BEZxv58qxEbgm3Y7_-1" target="DdIK49mO1vccAAld3szM-16">
          <mxGeometry relative="1" as="geometry">
            <Array as="points">
              <mxPoint x="537" y="539" />
              <mxPoint x="931" y="539" />
              <mxPoint x="931" y="428" />
            </Array>
          </mxGeometry>
        </mxCell>
        <mxCell id="DdIK49mO1vccAAld3szM-27" value="查询结果" style="edgeLabel;html=1;align=center;verticalAlign=middle;resizable=0;points=[];" vertex="1" connectable="0" parent="DdIK49mO1vccAAld3szM-19">
          <mxGeometry x="-0.3578" y="2" relative="1" as="geometry">
            <mxPoint x="-2" y="2" as="offset" />
          </mxGeometry>
        </mxCell>
        <mxCell id="-o-BEZxv58qxEbgm3Y7_-1" value="&lt;font style=&quot;font-size: 16px;&quot;&gt;查询采购历史&lt;/font&gt;" style="ellipse;whiteSpace=wrap;html=1;" parent="WIyWlLk6GJQsqaUBKTNV-1" vertex="1">
          <mxGeometry x="457" y="439" width="160" height="80" as="geometry" />
        </mxCell>
        <mxCell id="DdIK49mO1vccAAld3szM-21" style="edgeStyle=orthogonalEdgeStyle;rounded=0;orthogonalLoop=1;jettySize=auto;html=1;exitX=0.5;exitY=1;exitDx=0;exitDy=0;entryX=0.25;entryY=0;entryDx=0;entryDy=0;" edge="1" parent="WIyWlLk6GJQsqaUBKTNV-1" source="-o-BEZxv58qxEbgm3Y7_-2" target="DdIK49mO1vccAAld3szM-16">
          <mxGeometry relative="1" as="geometry">
            <Array as="points">
              <mxPoint x="537" y="291" />
              <mxPoint x="1061" y="291" />
            </Array>
          </mxGeometry>
        </mxCell>
        <mxCell id="DdIK49mO1vccAAld3szM-25" value="查询结果" style="edgeLabel;html=1;align=center;verticalAlign=middle;resizable=0;points=[];" vertex="1" connectable="0" parent="DdIK49mO1vccAAld3szM-21">
          <mxGeometry x="-0.3422" y="1" relative="1" as="geometry">
            <mxPoint x="-1" y="1" as="offset" />
          </mxGeometry>
        </mxCell>
        <mxCell id="-o-BEZxv58qxEbgm3Y7_-2" value="&lt;font style=&quot;font-size: 16px;&quot;&gt;查询盈利信息&lt;/font&gt;" style="ellipse;whiteSpace=wrap;html=1;" parent="WIyWlLk6GJQsqaUBKTNV-1" vertex="1">
          <mxGeometry x="457" y="179" width="160" height="80" as="geometry" />
        </mxCell>
        <mxCell id="DdIK49mO1vccAAld3szM-23" style="edgeStyle=orthogonalEdgeStyle;rounded=0;orthogonalLoop=1;jettySize=auto;html=1;exitX=0.5;exitY=1;exitDx=0;exitDy=0;entryX=0;entryY=0.25;entryDx=0;entryDy=0;" edge="1" parent="WIyWlLk6GJQsqaUBKTNV-1" source="-o-BEZxv58qxEbgm3Y7_-3" target="DdIK49mO1vccAAld3szM-16">
          <mxGeometry relative="1" as="geometry">
            <Array as="points">
              <mxPoint x="537" y="404" />
            </Array>
          </mxGeometry>
        </mxCell>
        <mxCell id="DdIK49mO1vccAAld3szM-26" value="查询结果" style="edgeLabel;html=1;align=center;verticalAlign=middle;resizable=0;points=[];" vertex="1" connectable="0" parent="DdIK49mO1vccAAld3szM-23">
          <mxGeometry x="-0.2341" relative="1" as="geometry">
            <mxPoint as="offset" />
          </mxGeometry>
        </mxCell>
        <mxCell id="-o-BEZxv58qxEbgm3Y7_-3" value="&lt;font style=&quot;font-size: 16px;&quot;&gt;查询销售历史&lt;/font&gt;" style="ellipse;whiteSpace=wrap;html=1;" parent="WIyWlLk6GJQsqaUBKTNV-1" vertex="1">
          <mxGeometry x="457" y="306" width="160" height="80" as="geometry" />
        </mxCell>
        <mxCell id="DdIK49mO1vccAAld3szM-22" style="edgeStyle=orthogonalEdgeStyle;rounded=0;orthogonalLoop=1;jettySize=auto;html=1;exitX=0.5;exitY=1;exitDx=0;exitDy=0;entryX=0.5;entryY=0;entryDx=0;entryDy=0;" edge="1" parent="WIyWlLk6GJQsqaUBKTNV-1" source="-o-BEZxv58qxEbgm3Y7_-4" target="DdIK49mO1vccAAld3szM-16">
          <mxGeometry relative="1" as="geometry">
            <Array as="points">
              <mxPoint x="537" y="161" />
              <mxPoint x="1081" y="161" />
            </Array>
          </mxGeometry>
        </mxCell>
        <mxCell id="DdIK49mO1vccAAld3szM-24" value="查询结果" style="edgeLabel;html=1;align=center;verticalAlign=middle;resizable=0;points=[];" vertex="1" connectable="0" parent="DdIK49mO1vccAAld3szM-22">
          <mxGeometry x="-0.4684" y="1" relative="1" as="geometry">
            <mxPoint y="1" as="offset" />
          </mxGeometry>
        </mxCell>
        <mxCell id="-o-BEZxv58qxEbgm3Y7_-4" value="&lt;font style=&quot;font-size: 16px;&quot;&gt;查询图书&lt;/font&gt;" style="ellipse;whiteSpace=wrap;html=1;" parent="WIyWlLk6GJQsqaUBKTNV-1" vertex="1">
          <mxGeometry x="457" y="49" width="160" height="80" as="geometry" />
        </mxCell>
        <mxCell id="DdIK49mO1vccAAld3szM-7" value="" style="edgeStyle=orthogonalEdgeStyle;rounded=0;orthogonalLoop=1;jettySize=auto;html=1;" edge="1" parent="WIyWlLk6GJQsqaUBKTNV-1" source="-o-BEZxv58qxEbgm3Y7_-16" target="-o-BEZxv58qxEbgm3Y7_-3">
          <mxGeometry relative="1" as="geometry" />
        </mxCell>
        <mxCell id="DdIK49mO1vccAAld3szM-12" value="信息" style="edgeLabel;html=1;align=center;verticalAlign=middle;resizable=0;points=[];" vertex="1" connectable="0" parent="DdIK49mO1vccAAld3szM-7">
          <mxGeometry x="-0.183" y="1" relative="1" as="geometry">
            <mxPoint x="-3" as="offset" />
          </mxGeometry>
        </mxCell>
        <mxCell id="-o-BEZxv58qxEbgm3Y7_-16" value="&lt;font style=&quot;font-size: 16px;&quot;&gt;销售历史文件&lt;/font&gt;" style="shape=partialRectangle;whiteSpace=wrap;html=1;left=0;right=0;fillColor=none;" parent="WIyWlLk6GJQsqaUBKTNV-1" vertex="1">
          <mxGeometry x="691" y="316" width="120" height="60" as="geometry" />
        </mxCell>
        <mxCell id="DdIK49mO1vccAAld3szM-6" value="" style="edgeStyle=orthogonalEdgeStyle;rounded=0;orthogonalLoop=1;jettySize=auto;html=1;" edge="1" parent="WIyWlLk6GJQsqaUBKTNV-1" source="-o-BEZxv58qxEbgm3Y7_-18" target="-o-BEZxv58qxEbgm3Y7_-1">
          <mxGeometry relative="1" as="geometry" />
        </mxCell>
        <mxCell id="DdIK49mO1vccAAld3szM-13" value="信息" style="edgeLabel;html=1;align=center;verticalAlign=middle;resizable=0;points=[];" vertex="1" connectable="0" parent="DdIK49mO1vccAAld3szM-6">
          <mxGeometry x="-0.183" relative="1" as="geometry">
            <mxPoint x="-3" as="offset" />
          </mxGeometry>
        </mxCell>
        <mxCell id="-o-BEZxv58qxEbgm3Y7_-18" value="&lt;font style=&quot;font-size: 16px;&quot;&gt;采购历史文件&lt;/font&gt;" style="shape=partialRectangle;whiteSpace=wrap;html=1;left=0;right=0;fillColor=none;" parent="WIyWlLk6GJQsqaUBKTNV-1" vertex="1">
          <mxGeometry x="691" y="449" width="120" height="60" as="geometry" />
        </mxCell>
        <mxCell id="DdIK49mO1vccAAld3szM-4" style="rounded=0;orthogonalLoop=1;jettySize=auto;html=1;exitX=0;exitY=0.75;exitDx=0;exitDy=0;entryX=1;entryY=0;entryDx=0;entryDy=0;" edge="1" parent="WIyWlLk6GJQsqaUBKTNV-1" source="-o-BEZxv58qxEbgm3Y7_-19" target="DdIK49mO1vccAAld3szM-0">
          <mxGeometry relative="1" as="geometry" />
        </mxCell>
        <mxCell id="DdIK49mO1vccAAld3szM-15" value="信息" style="edgeLabel;html=1;align=center;verticalAlign=middle;resizable=0;points=[];" vertex="1" connectable="0" parent="DdIK49mO1vccAAld3szM-4">
          <mxGeometry x="-0.0959" relative="1" as="geometry">
            <mxPoint x="-1" y="1" as="offset" />
          </mxGeometry>
        </mxCell>
        <mxCell id="DdIK49mO1vccAAld3szM-5" style="rounded=0;orthogonalLoop=1;jettySize=auto;html=1;exitX=0;exitY=0.25;exitDx=0;exitDy=0;entryX=1;entryY=1;entryDx=0;entryDy=0;" edge="1" parent="WIyWlLk6GJQsqaUBKTNV-1" source="-o-BEZxv58qxEbgm3Y7_-19" target="-o-BEZxv58qxEbgm3Y7_-0">
          <mxGeometry relative="1" as="geometry" />
        </mxCell>
        <mxCell id="DdIK49mO1vccAAld3szM-14" value="信息" style="edgeLabel;html=1;align=center;verticalAlign=middle;resizable=0;points=[];" vertex="1" connectable="0" parent="DdIK49mO1vccAAld3szM-5">
          <mxGeometry x="-0.1216" y="-2" relative="1" as="geometry">
            <mxPoint x="-5" y="1" as="offset" />
          </mxGeometry>
        </mxCell>
        <mxCell id="-o-BEZxv58qxEbgm3Y7_-19" value="&lt;font style=&quot;font-size: 16px;&quot;&gt;日志文件&lt;/font&gt;" style="shape=partialRectangle;whiteSpace=wrap;html=1;left=0;right=0;fillColor=none;" parent="WIyWlLk6GJQsqaUBKTNV-1" vertex="1">
          <mxGeometry x="691" y="639" width="120" height="60" as="geometry" />
        </mxCell>
        <mxCell id="DdIK49mO1vccAAld3szM-8" value="" style="edgeStyle=orthogonalEdgeStyle;rounded=0;orthogonalLoop=1;jettySize=auto;html=1;" edge="1" parent="WIyWlLk6GJQsqaUBKTNV-1" source="-o-BEZxv58qxEbgm3Y7_-20" target="-o-BEZxv58qxEbgm3Y7_-2">
          <mxGeometry relative="1" as="geometry" />
        </mxCell>
        <mxCell id="DdIK49mO1vccAAld3szM-11" value="信息" style="edgeLabel;html=1;align=center;verticalAlign=middle;resizable=0;points=[];" vertex="1" connectable="0" parent="DdIK49mO1vccAAld3szM-8">
          <mxGeometry x="-0.0998" y="-2" relative="1" as="geometry">
            <mxPoint y="2" as="offset" />
          </mxGeometry>
        </mxCell>
        <mxCell id="-o-BEZxv58qxEbgm3Y7_-20" value="&lt;font style=&quot;font-size: 16px;&quot;&gt;盈利信息文件&lt;/font&gt;" style="shape=partialRectangle;whiteSpace=wrap;html=1;left=0;right=0;fillColor=none;" parent="WIyWlLk6GJQsqaUBKTNV-1" vertex="1">
          <mxGeometry x="691" y="189" width="120" height="60" as="geometry" />
        </mxCell>
        <mxCell id="DdIK49mO1vccAAld3szM-9" value="" style="edgeStyle=orthogonalEdgeStyle;rounded=0;orthogonalLoop=1;jettySize=auto;html=1;" edge="1" parent="WIyWlLk6GJQsqaUBKTNV-1" source="-o-BEZxv58qxEbgm3Y7_-21" target="-o-BEZxv58qxEbgm3Y7_-4">
          <mxGeometry relative="1" as="geometry" />
        </mxCell>
        <mxCell id="DdIK49mO1vccAAld3szM-10" value="信息" style="edgeLabel;html=1;align=center;verticalAlign=middle;resizable=0;points=[];" vertex="1" connectable="0" parent="DdIK49mO1vccAAld3szM-9">
          <mxGeometry x="-0.0421" y="1" relative="1" as="geometry">
            <mxPoint x="-3" as="offset" />
          </mxGeometry>
        </mxCell>
        <mxCell id="-o-BEZxv58qxEbgm3Y7_-21" value="&lt;font style=&quot;font-size: 16px;&quot;&gt;图书文件&lt;/font&gt;" style="shape=partialRectangle;whiteSpace=wrap;html=1;left=0;right=0;fillColor=none;" parent="WIyWlLk6GJQsqaUBKTNV-1" vertex="1">
          <mxGeometry x="701" y="59" width="120" height="60" as="geometry" />
        </mxCell>
        <mxCell id="DdIK49mO1vccAAld3szM-17" style="edgeStyle=orthogonalEdgeStyle;rounded=0;orthogonalLoop=1;jettySize=auto;html=1;exitX=1;exitY=0.5;exitDx=0;exitDy=0;entryX=0.5;entryY=1;entryDx=0;entryDy=0;" edge="1" parent="WIyWlLk6GJQsqaUBKTNV-1" source="DdIK49mO1vccAAld3szM-0" target="DdIK49mO1vccAAld3szM-16">
          <mxGeometry relative="1" as="geometry" />
        </mxCell>
        <mxCell id="DdIK49mO1vccAAld3szM-29" value="查询结果" style="edgeLabel;html=1;align=center;verticalAlign=middle;resizable=0;points=[];" vertex="1" connectable="0" parent="DdIK49mO1vccAAld3szM-17">
          <mxGeometry x="-0.7358" relative="1" as="geometry">
            <mxPoint x="1" as="offset" />
          </mxGeometry>
        </mxCell>
        <mxCell id="DdIK49mO1vccAAld3szM-0" value="&lt;font style=&quot;font-size: 16px;&quot;&gt;查询员工工作情况&lt;/font&gt;" style="ellipse;whiteSpace=wrap;html=1;" vertex="1" parent="WIyWlLk6GJQsqaUBKTNV-1">
          <mxGeometry x="457" y="699" width="160" height="80" as="geometry" />
        </mxCell>
        <mxCell id="DdIK49mO1vccAAld3szM-16" value="&lt;span style=&quot;font-size: 16px;&quot;&gt;用户&lt;/span&gt;" style="whiteSpace=wrap;html=1;" vertex="1" parent="WIyWlLk6GJQsqaUBKTNV-1">
          <mxGeometry x="1041" y="391" width="80" height="50" as="geometry" />
        </mxCell>
      </root>
    </mxGraphModel>
  </diagram>
</mxfile>
